PathFileType	4	(X/Y/Z)	C:/Users/opensim2020/Desktop/walking_exp_matlab/subject06_walking13_straight_01.trc	
DataRate	CameraRate	NumFrames	NumMarkers	Units	OrigDataRate	OrigDataStartFrame	OrigNumFrames	
100.00	100.00	4	50	mm	100.00	991	163	
Frame#	Time	LFHD			RFHD			LBHD			RBHD			C7			T10			CLAV			STRN			RBAK			LSHO			LUPA			LELB			LFRM			LWRA			LWRB			LFIN			RSHO			RUPA			RELB			RFRM			RWRA			RWRB			RFIN			LASI			RASI			LPSI			RPSI			LTHI			LKNE			LTIB			LANK			LHEE			LTOE			RTHI			RKNE			RTIB			RANK			RHEE			RTOE			*39			*40			*41			*42			*43			*44			*45			*46			*47			*48			*49			
		X1	Y1	Z1	X2	Y2	Z2	X3	Y3	Z3	X4	Y4	Z4	X5	Y5	Z5	X6	Y6	Z6	X7	Y7	Z7	X8	Y8	Z8	X9	Y9	Z9	X10	Y10	Z10	X11	Y11	Z11	X12	Y12	Z12	X13	Y13	Z13	X14	Y14	Z14	X15	Y15	Z15	X16	Y16	Z16	X17	Y17	Z17	X18	Y18	Z18	X19	Y19	Z19	X20	Y20	Z20	X21	Y21	Z21	X22	Y22	Z22	X23	Y23	Z23	X24	Y24	Z24	X25	Y25	Z25	X26	Y26	Z26	X27	Y27	Z27	X28	Y28	Z28	X29	Y29	Z29	X30	Y30	Z30	X31	Y31	Z31	X32	Y32	Z32	X33	Y33	Z33	X34	Y34	Z34	X35	Y35	Z35	X36	Y36	Z36	X37	Y37	Z37	X38	Y38	Z38	X39	Y39	Z39	X40	Y40	Z40	X41	Y41	Z41	X42	Y42	Z42	X43	Y43	Z43	X44	Y44	Z44	X45	Y45	Z45	X46	Y46	Z46	X47	Y47	Z47	X48	Y48	Z48	X49	Y49	Z49	X50	Y50	Z50	

143	1.420	-1055.11841	657.26508	1642.14636	-925.09283	640.56665	1627.92664	-1073.82690	519.92719	1604.68530	-945.62183	505.00659	1595.10193	-1017.50977	498.61191	1435.73425	-1008.02521	471.51004	1102.67188	-1010.12195	610.70898	1359.06348	-1010.05115	656.37347	1187.92871	-938.26080	424.68939	1261.35522	-1175.18616	559.97797	1388.27026	-1244.58752	521.51459	1191.42859	-1250.99561	487.58026	1083.50562	-1268.57349	471.71301	933.32404	-1215.54163	488.12994	807.73004	-1264.87866	438.14688	819.25153	-1253.94592	447.49646	728.26349	-852.19843	555.12268	1391.09692	-758.69745	539.51575	1193.50427	-738.89185	576.73273	1078.99060	-724.58832	646.91315	983.92596	-765.55890	768.00549	902.58826	-724.47272	726.05707	872.36127	-722.26935	800.08685	836.32715	-1098.69421	669.72406	959.53009	-883.61359	645.00366	955.67828	-1092.98804	507.45761	973.33942	-925.45544	497.38000	970.86298	-1168.17358	672.69177	644.91815	-1136.85547	715.31702	489.70651	-1127.55847	723.87061	231.49246	-1080.35205	739.73041	63.17135	-1035.50598	697.90851	50.34484	-1069.85815	883.95361	37.71563	-830.88214	581.19897	614.50061	-843.41669	577.67242	486.08527	-860.22296	381.47604	307.46561	-909.22992	243.65849	187.43521	-956.06628	208.31279	205.26305	-917.76825	297.73886	40.64685	-1006.76886	556.06201	1691.08691																														 
144	1.430	-1055.91357	668.72650	1643.82227	-925.89020	651.69971	1629.57886	-1075.05676	531.58276	1606.01672	-946.88245	516.25299	1596.43298	-1018.94714	510.29111	1437.02783	-1008.99347	482.77774	1104.36938	-1011.02588	622.40979	1360.54968	-1010.91180	667.99786	1189.31177	-939.89771	436.08783	1262.79822	-1176.25305	572.49719	1389.94202	-1245.95605	536.36584	1192.40051	-1253.04736	503.97498	1084.22717	-1270.69177	490.29617	933.75140	-1218.02576	508.04477	808.45319	-1267.67041	458.47278	819.30560	-1256.87573	468.91754	728.48187	-853.43347	566.09454	1392.70215	-760.36792	549.40057	1194.93506	-741.22754	584.92053	1079.96045	-726.28259	653.43176	983.56116	-766.34216	773.18024	899.79474	-725.36914	729.92859	870.23737	-722.60278	803.66418	832.98627	-1100.46790	680.74420	961.23901	-884.98431	656.76563	957.07697	-1093.19995	518.13568	974.78876	-925.73871	508.91095	971.48547	-1168.58044	683.23230	646.23358	-1136.77026	724.67926	490.64844	-1127.17932	728.62561	231.97548	-1079.98206	740.30481	63.46768	-1035.25439	698.30994	50.66668	-1070.32349	884.56696	37.40295	-832.23621	599.75769	614.59741	-844.64624	600.28680	486.33466	-860.36633	403.32724	312.04425	-908.75647	261.99631	196.92369	-955.61273	228.23814	217.21568	-917.15015	304.87500	44.56197	-1007.89893	567.28058	1692.50342																														 
145	1.440	-1056.59583	680.22247	1645.57007	-926.69659	662.73560	1631.25134	-1076.21326	543.19354	1607.47083	-948.04688	527.57849	1597.91077	-1020.30414	522.09229	1438.76208	-1010.08929	494.05789	1106.12183	-1011.80316	633.92896	1362.18982	-1011.67712	679.32526	1190.74561	-941.41492	447.34161	1264.56018	-1177.23035	584.92834	1391.65796	-1247.76196	551.71613	1193.62695	-1255.12012	520.65961	1084.95447	-1273.10303	509.41187	934.37427	-1220.41260	528.50549	809.30420	-1270.82166	479.46652	819.61371	-1259.85095	491.24362	728.82538	-854.56842	576.98413	1394.38330	-762.13324	559.03564	1196.33203	-743.44458	593.00189	1080.95129	-727.94061	659.58307	983.04449	-766.85272	778.09479	896.78210	-726.55164	734.04865	868.19159	-723.04083	806.50031	829.08685	-1102.19116	691.40918	962.78406	-886.04236	667.88574	958.47278	-1093.30347	528.50171	976.08301	-925.74872	519.82556	972.50476	-1168.82178	692.34271	646.98334	-1136.79358	732.82043	491.12021	-1126.83752	731.98022	232.26984	-1079.72473	740.54950	63.62584	-1035.13367	698.42053	50.90779	-1070.29785	884.80286	37.13786	-834.13501	618.41663	615.09167	-846.76581	623.35205	487.02759	-860.15131	425.95340	316.53445	-908.08374	281.87524	204.95450	-954.91071	249.88560	227.62718	-916.35498	313.26730	48.27800	-1008.93481	578.56488	1694.09033																														 
146	1.450	-1057.35413	691.71661	1647.44470	-927.40649	673.89966	1633.12610	-1077.23474	554.78369	1609.08801	-949.18774	538.80096	1599.52808	-1021.56720	533.81659	1440.65137	-1011.19043	505.08569	1108.14258	-1012.57715	645.38226	1363.90747	-1012.37708	690.42212	1192.24573	-942.87109	458.34088	1266.68579	-1178.12439	597.33606	1393.41626	-1249.33240	566.72070	1194.81494	-1257.27197	537.32776	1085.72375	-1276.06311	529.18848	935.33289	-1222.70593	549.56653	810.24237	-1273.68506	500.93158	819.81085	-1262.89221	514.35260	729.25775	-855.57147	587.83246	1396.07837	-764.04919	568.37451	1197.77783	-745.41760	600.97229	1081.92395	-729.62250	665.48932	982.46387	-767.49390	782.48871	893.45306	-727.44958	737.27551	866.03882	-723.47986	808.77289	825.06952	-1103.70825	701.65668	964.26453	-886.94055	678.87927	960.18842	-1093.50928	538.66907	977.32355	-925.83746	530.63281	973.60223	-1168.93713	700.22070	647.48834	-1136.98218	739.69696	491.29959	-1126.67749	734.00067	232.59227	-1079.52612	740.72577	63.80138	-1035.01208	698.35907	51.05920	-1069.78027	884.90442	36.81929	-836.33203	636.75085	615.90350	-849.39740	646.23956	488.40036	-860.28485	450.06741	319.82022	-907.38806	303.19717	211.51535	-954.23761	273.05972	236.60817	-916.65540	323.67618	52.16978	-1009.94952	589.82086	1695.82190																														 
